<svg xmlns="http://www.w3.org/2000/svg" data-name="Layer 1" viewBox="0 0 64 64" id="online-multi-payment"><path d="M52.418 23.247A1 1 0 0 0 50.76 24l-.007 2.643a14.8 14.8 0 0 0-3.051.8 20.609 20.609 0 0 0 4.711-10.831L56 16.6a1 1 0 0 0 .772-1.632l-10.28-12.6a1 1 0 0 0-1.549 0l-10.33 12.64a1 1 0 0 0 .775 1.633l3.244-.007a18.432 18.432 0 0 1-4.4 9.707A10.092 10.092 0 0 0 32 24.019V5.92A3.925 3.925 0 0 0 28.08 2H5.92A3.925 3.925 0 0 0 2 5.92v52.16A3.925 3.925 0 0 0 5.92 62h22.16A3.925 3.925 0 0 0 32 58.08v-18.1a10.092 10.092 0 0 0 2.235-2.321 18.432 18.432 0 0 1 4.4 9.707l-3.244-.007a1 1 0 0 0-.775 1.633l10.33 12.64a1 1 0 0 0 1.549 0l10.28-12.6A1 1 0 0 0 56 47.4l-3.589-.008a20.758 20.758 0 0 0-3.366-9.063 12.655 12.655 0 0 1 1.69-.423l-.007 2.282a1 1 0 0 0 1.66.754l9.269-8.12a1 1 0 0 0 0-1.505Zm-11.671-7.538a1 1 0 0 0-1-1.079h-2.246l8.218-10.049L53.9 14.6l-2.389.006a1 1 0 0 0-1 .921 17.837 17.837 0 0 1-11.326 15.53 15.3 15.3 0 0 1-3.195.791 9.934 9.934 0 0 0-.751-3.665 20.467 20.467 0 0 0 5.508-12.474ZM30 58.08A1.922 1.922 0 0 1 28.08 60H5.92A1.922 1.922 0 0 1 4 58.08V5.92A1.922 1.922 0 0 1 5.92 4h22.16A1.922 1.922 0 0 1 30 5.92v16.921a10 10 0 1 0 0 18.318ZM26 40a8 8 0 1 1 8-8 8.009 8.009 0 0 1-8 8Zm25.508 9.39 2.392.01-8.181 10.019L37.5 49.365h2.246a1 1 0 0 0 1-1.079 20.467 20.467 0 0 0-5.506-12.478 9.924 9.924 0 0 0 .576-1.934 17.245 17.245 0 0 0 3.675-.816 17.862 17.862 0 0 1 11.022 15.411 1 1 0 0 0 .995.921Zm1.228-11.411v-1.207a1 1 0 0 0-.323-.739.977.977 0 0 0-.763-.26 14.793 14.793 0 0 0-3.878.878 19.047 19.047 0 0 0-4.441-3.889 12.96 12.96 0 0 1 8.5-4.236 1 1 0 0 0 .916-.993v-1.338l6.727 5.876Z"></path><path d="M27 27.152V26h-2v1.152a2.872 2.872 0 0 0-2 2.727v.242A2.882 2.882 0 0 0 25.879 33h.242a.881.881 0 0 1 .879.879v.242a.881.881 0 0 1-.879.879h-.242a.881.881 0 0 1-.879-.879V34h-2v.121a2.872 2.872 0 0 0 2 2.727V38h2v-1.152a2.872 2.872 0 0 0 2-2.727v-.242A2.882 2.882 0 0 0 26.121 31h-.242a.881.881 0 0 1-.879-.879v-.242a.881.881 0 0 1 .879-.879h.242a.881.881 0 0 1 .879.879V30h2v-.121a2.872 2.872 0 0 0-2-2.727ZM12 6h10v2H12zM17 48a5 5 0 1 0 5 5 5.006 5.006 0 0 0-5-5Zm0 8a3 3 0 1 1 3-3 3 3 0 0 1-3 3Z"></path></svg>